<?xml version="1.0" encoding="iso-8859-1"?>
<!-- Generator: Adobe Illustrator 19.0.0, SVG Export Plug-In . SVG Version: 6.00 Build 0)  -->
<svg version="1.1" id="Capa_1" xmlns="http://www.w3.org/2000/svg" xmlns:xlink="http://www.w3.org/1999/xlink" x="0px" y="0px" fill="#484848" height="60px" width="60px" viewBox="0 0 512 512" style="enable-background:new 0 0 512 512;" xml:space="preserve">
<g>
	<g>
		<polygon points="192.32,0 0,112 66.88,152 256.32,38.4 		"/>
	</g>
</g>
<g>
	<g>
		<polygon points="445.44,152 256.32,265.6 320.64,304 512,192 		"/>
	</g>
</g>
<g>
	<g>
		<polygon points="66.88,152 0,192 192.32,304 256.32,265.6 		"/>
	</g>
</g>
<g>
	<g>
		<path d="M328.64,336.416c-2.528,1.472-5.312,2.176-8.096,2.176c-2.848,0-5.696-0.736-8.224-2.24l-55.968-33.44l-55.68,33.408
			c-5.024,3.008-11.296,3.04-16.288,0.096L64,266.304V400c0,6.72,4.192,12.736,10.528,15.04l176,96c1.76,0.64,3.616,0.96,5.472,0.96
			s3.712-0.32,5.472-0.96l176-96C443.776,412.736,448,406.72,448,400V266.56L328.64,336.416z"/>
	</g>
</g>
<g>
	<g>
		<polygon points="320.64,0 256.32,38.4 445.44,152 512,112 		"/>
	</g>
</g>
<g>
</g>
<g>
</g>
<g>
</g>
<g>
</g>
<g>
</g>
<g>
</g>
<g>
</g>
<g>
</g>
<g>
</g>
<g>
</g>
<g>
</g>
<g>
</g>
<g>
</g>
<g>
</g>
<g>
</g>
</svg>
